  <svg
    id="visual"
    viewBox="0 0 1920 200"
    width="1920"
    height="200"
    xmlns="http://www.w3.org/2000/svg"
    xmlns:xlink="http://www.w3.org/1999/xlink"
    version="1.1"
    preserveAspectRatio="xMaxYMax meet"
  >
    <path
      d="M0 53L160 53L160 49L320 49L320 54L480 54L480 61L640 61L640 55L800 55L800 64L960 64L960 52L1120 52L1120 44L1280 44L1280 40L1440 40L1440 49L1600 49L1600 48L1760 48L1760 54L1920 54L1920 64L1920 201L1920 201L1760 201L1760 201L1600 201L1600 201L1440 201L1440 201L1280 201L1280 201L1120 201L1120 201L960 201L960 201L800 201L800 201L640 201L640 201L480 201L480 201L320 201L320 201L160 201L160 201L0 201Z"
      fill="#00c1ff"
    ></path>
    <path
      d="M0 77L160 77L160 91L320 91L320 99L480 99L480 80L640 80L640 92L800 92L800 101L960 101L960 93L1120 93L1120 75L1280 75L1280 81L1440 81L1440 100L1600 100L1600 91L1760 91L1760 98L1920 98L1920 94L1920 201L1920 201L1760 201L1760 201L1600 201L1600 201L1440 201L1440 201L1280 201L1280 201L1120 201L1120 201L960 201L960 201L800 201L800 201L640 201L640 201L480 201L480 201L320 201L320 201L160 201L160 201L0 201Z"
      fill="#0280bb"
    ></path>
    <path
      d="M0 112L160 112L160 125L320 125L320 126L480 126L480 128L640 128L640 136L800 136L800 135L960 135L960 127L1120 127L1120 125L1280 125L1280 132L1440 132L1440 125L1600 125L1600 120L1760 120L1760 128L1920 128L1920 122L1920 201L1920 201L1760 201L1760 201L1600 201L1600 201L1440 201L1440 201L1280 201L1280 201L1120 201L1120 201L960 201L960 201L800 201L800 201L640 201L640 201L480 201L480 201L320 201L320 201L160 201L160 201L0 201Z"
      fill="#004377"
    ></path>
    <path
      d="M0 169L160 169L160 153L320 153L320 151L480 151L480 162L640 162L640 165L800 165L800 150L960 150L960 156L1120 156L1120 154L1280 154L1280 169L1440 169L1440 168L1600 168L1600 161L1760 161L1760 151L1920 151L1920 166L1920 201L1920 201L1760 201L1760 201L1600 201L1600 201L1440 201L1440 201L1280 201L1280 201L1120 201L1120 201L960 201L960 201L800 201L800 201L640 201L640 201L480 201L480 201L320 201L320 201L160 201L160 201L0 201Z"
      fill="#000000"
    ></path>
  </svg>