<svg
  xmlns="http://www.w3.org/2000/svg" 
  xmlns:xlink="http://www.w3.org/1999/xlink" 
  version="1.1"
  width="1920"
  height="160px"
  viewBox="0 0 1920 160"
  preserveAspectRatio="xMaxYMax meet"
>
  <path
    d="M0 93L53.3 82.2C106.7 71.3 213.3 49.7 320 39C426.7 28.3 533.3 28.7 640 43.7C746.7 58.7 853.3 88.3 960 109.3C1066.7 130.3 1173.3 142.7 1280 141.7C1386.7 140.7 1493.3 126.3 1600 107.3C1706.7 88.3 1813.3 64.7 1866.7 52.8L1920 41L1920 161L1866.7 161C1813.3 161 1706.7 161 1600 161C1493.3 161 1386.7 161 1280 161C1173.3 161 1066.7 161 960 161C853.3 161 746.7 161 640 161C533.3 161 426.7 161 320 161C213.3 161 106.7 161 53.3 161L0 161Z"
    fill="#010005"
    stroke-linecap="round"
    stroke-linejoin="miter"
  ></path>
</svg>