<svg
  xmlns="http://www.w3.org/2000/svg" 
  xmlns:xlink="http://www.w3.org/1999/xlink" 
  version="1.1"
  viewBox="0 0 1920 280"
  width="1920"
  height="280"
  preserveAspectRatio="xMaxYMax meet"
>
  <path
    d="M0 36L64 42.3C128 48.7 256 61.3 384 68.8C512 76.3 640 78.7 768 80.3C896 82 1024 83 1152 72.8C1280 62.7 1408 41.3 1536 31.3C1664 21.3 1792 22.7 1856 23.3L1920 24L1920 281L1856 281C1792 281 1664 281 1536 281C1408 281 1280 281 1152 281C1024 281 896 281 768 281C640 281 512 281 384 281C256 281 128 281 64 281L0 281Z"
    fill="#f10960"
  ></path>
  <path
    d="M0 138L64 144C128 150 256 162 384 155.3C512 148.7 640 123.3 768 123C896 122.7 1024 147.3 1152 148.7C1280 150 1408 128 1536 121.5C1664 115 1792 124 1856 128.5L1920 133L1920 281L1856 281C1792 281 1664 281 1536 281C1408 281 1280 281 1152 281C1024 281 896 281 768 281C640 281 512 281 384 281C256 281 128 281 64 281L0 281Z"
    fill="#fd7b92"
  ></path>
  <path
    d="M0 112L64 122C128 132 256 152 384 160.7C512 169.3 640 166.7 768 175.3C896 184 1024 204 1152 207.2C1280 210.3 1408 196.7 1536 179.3C1664 162 1792 141 1856 130.5L1920 120L1920 281L1856 281C1792 281 1664 281 1536 281C1408 281 1280 281 1152 281C1024 281 896 281 768 281C640 281 512 281 384 281C256 281 128 281 64 281L0 281Z"
    fill="#ffbfc7"
  ></path>
  <path
    d="M0 217L64 225.3C128 233.7 256 250.3 384 257.7C512 265 640 263 768 249.8C896 236.7 1024 212.3 1152 202.5C1280 192.7 1408 197.3 1536 210.3C1664 223.3 1792 244.7 1856 255.3L1920 266L1920 281L1856 281C1792 281 1664 281 1536 281C1408 281 1280 281 1152 281C1024 281 896 281 768 281C640 281 512 281 384 281C256 281 128 281 64 281L0 281Z"
    fill="#ffffff"
  ></path>
</svg>